<svg width="21" height="21" viewBox="0 0 21 21" fill="none" xmlns="http://www.w3.org/2000/svg">
<path d="M2.61075 13.886C1.10841 13.4926 0 12.1257 0 10.5C0 9.23217 0.674107 8.12179 1.68345 7.50773C2.06613 7.27491 2.33333 6.86461 2.33333 6.41667C2.33333 2.87284 5.20617 0 8.75 0C10.0706 0 11.298 0.398933 12.3183 1.08286C12.7522 1.37369 13.3161 1.40377 13.8204 1.26747C14.0636 1.20174 14.3194 1.16667 14.5833 1.16667C16.1942 1.16667 17.5 2.4725 17.5 4.08333C17.5 4.47736 17.7297 4.86165 18.0946 5.01045C19.7989 5.70552 21 7.37916 21 9.33333C21 11.1536 19.9578 12.7305 18.4375 13.4998L17.6277 19.978C17.5548 20.5619 17.0585 21 16.4701 21H4.52991C3.94154 21 3.44523 20.5619 3.37226 19.978L2.61075 13.886ZM4.66667 6.41667C4.66667 7.80423 3.86073 8.91433 2.8962 9.50113C2.55366 9.70953 2.33333 10.0801 2.33333 10.5C2.33333 11.1443 2.85567 11.6667 3.5 11.6667H16.3333C17.622 11.6667 18.6667 10.622 18.6667 9.33333C18.6667 8.35992 18.0699 7.52032 17.2134 7.17101C15.8666 6.62171 15.1667 5.30834 15.1667 4.08333C15.1667 3.76117 14.9055 3.5 14.5833 3.5C14.5268 3.5 14.4757 3.5074 14.4292 3.51997C13.4833 3.77564 12.172 3.79383 11.0191 3.02103C10.3711 2.58667 9.59367 2.33333 8.75 2.33333C6.49484 2.33333 4.66667 4.1615 4.66667 6.41667ZM4.97649 14L5.55982 18.6667H7V14H4.97649ZM11.6667 18.6667V14H9.33333V18.6667H11.6667ZM14 18.6667H15.4402L16.0235 14H14V18.6667Z" fill="white"/>
</svg>
