<svg width="15" height="15" viewBox="0 0 15 15" fill="none" xmlns="http://www.w3.org/2000/svg">
<path d="M3.4625 12.2C3.08125 12.2 2.725 12.0687 2.46875 11.825C2.14375 11.5187 1.9875 11.0562 2.04375 10.5562L2.275 8.53122C2.31875 8.14997 2.55 7.64372 2.81875 7.36872L7.95 1.93747C9.23125 0.58122 10.5687 0.54372 11.925 1.82497C13.2812 3.10622 13.3187 4.44372 12.0375 5.79997L6.90625 11.2312C6.64375 11.5125 6.15625 11.775 5.775 11.8375L3.7625 12.1812C3.65625 12.1875 3.5625 12.2 3.4625 12.2ZM9.95625 1.81872C9.475 1.81872 9.05625 2.11872 8.63125 2.56872L3.5 8.00622C3.375 8.13747 3.23125 8.44997 3.20625 8.63122L2.975 10.6562C2.95 10.8625 3 11.0312 3.1125 11.1375C3.225 11.2437 3.39375 11.2812 3.6 11.25L5.6125 10.9062C5.79375 10.875 6.09375 10.7125 6.21875 10.5812L11.35 5.14997C12.125 4.32497 12.4063 3.56247 11.275 2.49997C10.775 2.01872 10.3438 1.81872 9.95625 1.81872Z" fill="#666666"/>
<path d="M10.8375 6.84372C10.825 6.84372 10.8063 6.84372 10.7938 6.84372C8.84375 6.64997 7.275 5.16872 6.975 3.23122C6.9375 2.97497 7.1125 2.73747 7.36875 2.69372C7.625 2.65622 7.8625 2.83122 7.90625 3.08747C8.14375 4.59997 9.36875 5.76247 10.8938 5.91247C11.15 5.93747 11.3375 6.16872 11.3125 6.42497C11.2813 6.66247 11.075 6.84372 10.8375 6.84372Z" fill="#666666"/>
<path d="M13.125 14.2187H1.875C1.61875 14.2187 1.40625 14.0062 1.40625 13.75C1.40625 13.4937 1.61875 13.2812 1.875 13.2812H13.125C13.3812 13.2812 13.5938 13.4937 13.5938 13.75C13.5938 14.0062 13.3812 14.2187 13.125 14.2187Z" fill="#666666"/>
</svg>
