<svg width="20" height="20" viewBox="0 0 20 20" fill="none" xmlns="http://www.w3.org/2000/svg">
<rect x="8" y="1" width="7" height="7" transform="rotate(90 8 1)" stroke="#58627A" stroke-width="1.5" stroke-linecap="round"/>
<rect width="1" height="1" transform="matrix(-1 0 0 1 5 4)" stroke="#58627A" stroke-width="1.5" stroke-linecap="round"/>
<rect x="8" y="12" width="7" height="7" transform="rotate(90 8 12)" stroke="#58627A" stroke-width="1.5" stroke-linecap="round"/>
<rect x="4" y="15" width="1" height="1" stroke="#58627A" stroke-width="1.5" stroke-linecap="round"/>
<rect x="12" y="18" width="1" height="1" stroke="#58627A" stroke-width="1.5" stroke-linecap="round"/>
<rect x="15" y="15" width="1" height="1" stroke="#58627A" stroke-width="1.5" stroke-linecap="round"/>
<rect x="12" y="12" width="1" height="1" stroke="#58627A" stroke-width="1.5" stroke-linecap="round"/>
<rect x="18" y="15" width="1" height="1" stroke="#58627A" stroke-width="1.5" stroke-linecap="round"/>
<rect x="18" y="12" width="1" height="1" stroke="#58627A" stroke-width="1.5" stroke-linecap="round"/>
<rect x="18" y="18" width="1" height="1" stroke="#58627A" stroke-width="1.5" stroke-linecap="round"/>
<rect x="19" y="1" width="7" height="7" transform="rotate(90 19 1)" stroke="#58627A" stroke-width="1.5" stroke-linecap="round"/>
<rect x="15" y="4" width="1" height="1" stroke="#58627A" stroke-width="1.5" stroke-linecap="round"/>
</svg>
