<svg width="14" height="12" viewBox="0 0 14 12" fill="none" xmlns="http://www.w3.org/2000/svg">
<path fill-rule="evenodd" clip-rule="evenodd" d="M6.99998 2.66667V0H0.333313V12H13.6666V2.66667H6.99998ZM2.99998 10.6667H1.66665V9.33333H2.99998V10.6667ZM2.99998 8H1.66665V6.66667H2.99998V8ZM2.99998 5.33333H1.66665V4H2.99998V5.33333ZM2.99998 2.66667H1.66665V1.33333H2.99998V2.66667ZM5.66665 10.6667H4.33331V9.33333H5.66665V10.6667ZM5.66665 8H4.33331V6.66667H5.66665V8ZM5.66665 5.33333H4.33331V4H5.66665V5.33333ZM5.66665 2.66667H4.33331V1.33333H5.66665V2.66667ZM12.3333 10.6667H6.99998V9.33333H8.33331V8H6.99998V6.66667H8.33331V5.33333H6.99998V4H12.3333V10.6667ZM11 5.33333H9.66665V6.66667H11V5.33333ZM11 8H9.66665V9.33333H11V8Z" fill="#898989"/>
</svg>
