<svg width="512" height="512" viewBox="0 0 512 512" fill="none" xmlns="http://www.w3.org/2000/svg">
<path d="M316 314.77V374.23C316 404.61 291.38 429.23 261 429.23C230.62 429.23 206 404.61 206 374.23V314.78C190.01 329.57 180 350.73 180 374.23C180 418.97 216.27 455.23 261 455.23C305.74 455.23 342 418.97 342 374.23C342 350.729 331.99 329.56 316 314.77Z" fill="#252525"/>
<path d="M292 337.59V338C291.78 357.14 276.19 372.59 257 372.59C237.81 372.59 222.22 357.14 222 338V337.59C222 321.37 233.03 307.731 248 303.76V338C248 342.97 252.03 347 257 347C261.971 347 266 342.97 266 338V303.76C280.97 307.73 292 321.37 292 337.59Z" fill="#252525"/>
<path d="M206 110H180V373H206V110Z" fill="#252525"/>
<path d="M292 110H266V338H292V110Z" fill="#252525"/>
<path d="M248 186H222V338H248V186Z" fill="#252525"/>
<path d="M236 54C205.07 54 180 79.07 180 110C180 129.89 190.37 147.36 206 157.29V110C206 93.43 219.43 80 236 80C252.57 80 266 93.43 266 110V157.29C281.63 147.36 292 129.89 292 110C292 79.07 266.93 54 236 54Z" fill="#252525"/>
<path d="M342 110H316V373H342V110Z" fill="#252525"/>
<path d="M235 198.5C242.18 198.5 248 192.68 248 185.5C248 178.32 242.18 172.5 235 172.5C227.82 172.5 222 178.32 222 185.5C222 192.68 227.82 198.5 235 198.5Z" fill="#252525"/>
<path d="M329 122.5C336.18 122.5 342 116.68 342 109.5C342 102.32 336.18 96.5 329 96.5C321.82 96.5 316 102.32 316 109.5C316 116.68 321.82 122.5 329 122.5Z" fill="#252525"/>
</svg>
