<svg width="29" height="26" viewBox="0 0 29 26" fill="none" xmlns="http://www.w3.org/2000/svg">
<path d="M23.4 0L16.9 5.85V20.15L23.4 14.3V0ZM7.15 3.9C4.615 3.9 1.885 4.42 0 5.85V24.908C0 25.233 0.325 25.558 0.65 25.558C0.78 25.558 0.845 25.467 0.975 25.467C2.73 24.622 5.265 24.05 7.15 24.05C9.685 24.05 12.415 24.57 14.3 26C16.055 24.895 19.24 24.05 21.45 24.05C23.595 24.05 25.805 24.453 27.625 25.428C27.755 25.493 27.82 25.467 27.95 25.467C28.275 25.467 28.6 25.142 28.6 24.817V5.85C27.82 5.265 26.975 4.875 26 4.55V7.15V14.3V22.1C24.57 21.645 23.01 21.45 21.45 21.45C19.24 21.45 16.055 22.295 14.3 23.4V14.3V8.45V5.85C12.415 4.42 9.685 3.9 7.15 3.9Z" fill="white"/>
</svg>
