<svg width="22" height="15" viewBox="0 0 22 15" fill="none" xmlns="http://www.w3.org/2000/svg">
<path d="M3 0C1.35 0 0 1.35 0 3V10C0 11.3 0.84 12.4103 2 12.8203V3C2 2.45 2.45 2 3 2H19C19.55 2 20 2.45 20 3V12.8203C21.16 12.4103 22 11.3 22 10V3C22 1.35 20.65 0 19 0H3ZM17 4C16.448 4 16 4.448 16 5V14C16 14.552 16.448 15 17 15C17.552 15 18 14.552 18 14V5C18 4.448 17.552 4 17 4ZM9 6C8.448 6 8 6.448 8 7V14C8 14.552 8.448 15 9 15C9.552 15 10 14.552 10 14V7C10 6.448 9.552 6 9 6ZM13 8C12.448 8 12 8.448 12 9V14C12 14.552 12.448 15 13 15C13.552 15 14 14.552 14 14V9C14 8.448 13.552 8 13 8ZM5 10C4.448 10 4 10.448 4 11V14C4 14.552 4.448 15 5 15C5.552 15 6 14.552 6 14V11C6 10.448 5.552 10 5 10Z" fill="#58627A"/>
</svg>
