<svg width="24" height="25" viewBox="0 0 24 25" fill="none" xmlns="http://www.w3.org/2000/svg">
<path fill-rule="evenodd" clip-rule="evenodd" d="M9.99994 16.1241C7.16694 16.1241 4.86994 13.8271 4.86994 10.9941C4.86994 8.16108 7.16694 5.86408 9.99994 5.86408C12.8329 5.86408 15.1299 8.16108 15.1299 10.9941C15.1299 13.8271 12.8329 16.1241 9.99994 16.1241ZM20.9999 20.6641L15.5599 15.2241C17.9019 12.1481 17.3059 7.75608 14.2299 5.41408C11.1539 3.07308 6.76194 3.66808 4.41994 6.74408C2.07894 9.82008 2.67394 14.2121 5.74994 16.5541C8.25494 18.4611 11.7249 18.4611 14.2299 16.5541L19.6699 21.9941L20.9999 20.6641Z" fill="black" fill-opacity="0.6"/>
</svg>
