<svg width="19" height="17" viewBox="0 0 19 17" fill="none" xmlns="http://www.w3.org/2000/svg">
<g id="lock-alt">
<path id="Combined Shape" d="M6.68657 13.99L6.8159 13.5071C6.69784 13.4755 6.57228 13.4882 6.46296 13.5428L6.68657 13.99ZM2.66667 16L2.17169 15.9293C2.14539 16.1134 2.22344 16.2969 2.37431 16.4056C2.52518 16.5144 2.72393 16.5304 2.89027 16.4472L2.66667 16ZM3.21102 12.1895L3.706 12.2602C3.73005 12.0919 3.66688 11.9228 3.53833 11.8115L3.21102 12.1895ZM9.33333 14.8333C14.102 14.8333 18.1667 11.7231 18.1667 7.66667H17.1667C17.1667 10.9741 13.7694 13.8333 9.33333 13.8333V14.8333ZM6.55724 14.473C7.43123 14.7071 8.36472 14.8333 9.33333 14.8333V13.8333C8.45152 13.8333 7.60501 13.7184 6.8159 13.5071L6.55724 14.473ZM2.89027 16.4472L6.91018 14.4373L6.46296 13.5428L2.44306 15.5528L2.89027 16.4472ZM2.71605 12.1188L2.17169 15.9293L3.16164 16.0707L3.706 12.2602L2.71605 12.1188ZM0.5 7.66667C0.5 9.58147 1.42129 11.3011 2.88372 12.5675L3.53833 11.8115C2.25587 10.701 1.5 9.24297 1.5 7.66667H0.5ZM9.33333 0.5C4.5647 0.5 0.5 3.61028 0.5 7.66667H1.5C1.5 4.35926 4.89722 1.5 9.33333 1.5V0.5ZM18.1667 7.66667C18.1667 3.61028 14.102 0.5 9.33333 0.5V1.5C13.7694 1.5 17.1667 4.35926 17.1667 7.66667H18.1667Z" fill="#555555"/>
</g>
</svg>
