<svg width="17" height="16" viewBox="0 0 17 16" fill="none" xmlns="http://www.w3.org/2000/svg">
<path fill-rule="evenodd" clip-rule="evenodd" d="M12.75 8.99951C12.0929 8.99951 11.56 8.4753 11.56 7.82901C11.56 7.18273 12.0929 6.65851 12.75 6.65851C13.4071 6.65851 13.94 7.18273 13.94 7.82901C13.94 8.4753 13.4071 8.99951 12.75 8.99951ZM12.75 5.32079C11.6722 5.32414 10.7126 5.993 10.353 6.99294H0V8.66508H10.353C10.8401 9.96518 12.3063 10.6307 13.6272 10.1516C14.3285 9.89746 14.8801 9.35401 15.1385 8.66508H17V6.99294H15.147C14.7874 5.993 13.8278 5.32414 12.75 5.32079ZM4.25 14.016C3.59295 14.016 3.06 13.4917 3.06 12.8455C3.06 12.1992 3.59295 11.6749 4.25 11.6749C4.90705 11.6749 5.44 12.1992 5.44 12.8455C5.44 13.4917 4.90705 14.016 4.25 14.016ZM4.25 10.3372C3.1722 10.3406 2.21255 11.0094 1.853 12.0094H0V13.6815H1.853C2.34005 14.9816 3.8063 15.6471 5.1272 15.1681C5.82845 14.9139 6.3801 14.3705 6.6385 13.6815H17V12.0094H6.647C6.28745 11.0094 5.3278 10.3406 4.25 10.3372ZM4.25 3.98307C3.59295 3.98307 3.06 3.45886 3.06 2.81257C3.06 2.16629 3.59295 1.64207 4.25 1.64207C4.90705 1.64207 5.44 2.16629 5.44 2.81257C5.44 3.45886 4.90705 3.98307 4.25 3.98307ZM6.647 1.9765C6.16675 0.674732 4.7039 0.00169349 3.3796 0.474911C2.66985 0.728241 2.11055 1.27838 1.853 1.9765H0V3.64865H1.853C2.33325 4.95041 3.7961 5.62345 5.1204 5.15023C5.83015 4.8969 6.38945 4.34677 6.647 3.64865H17V1.9765H6.647Z" fill="black" fill-opacity="0.6"/>
</svg>
